<?xml version="1.0" encoding="utf-8"?>
<!-- Generator: Adobe Illustrator 21.1.0, SVG Export Plug-In . SVG Version: 6.00 Build 0)  -->
<svg version="1.1" id="Layer_1" xmlns="http://www.w3.org/2000/svg" xmlns:xlink="http://www.w3.org/1999/xlink" x="0px" y="0px"
	 viewBox="0 0 1280 666" style="enable-background:new 0 0 1280 666;" xml:space="preserve">
<style type="text/css">
	.st0{fill:none;}
	.st1{fill:none;stroke:#000000;stroke-linecap:round;}
	.st2{fill:#EEEEEE;fill-opacity:0.4;}
	.st3{fill:#99DDFF;fill-opacity:0.4;}
	.st4{fill:#FFBBBB;fill-opacity:0.4;}
	.st5{clip-path:url(#SVGID_2_);fill:none;stroke:#000000;stroke-linecap:round;}
	.st6{enable-background:new    ;}
	.st7{fill:#26476C;}
	.st8{fill:#1D3651;}
	.st9{fill:#315478;}
	.st10{fill:#406C9A;}
	.st11{fill:#4270A0;}
	.st12{fill:#254568;}
	.st13{fill:#FE7568;}
	.st14{font-family:'CMUSansSerif';}
	.st15{font-size:12px;}
	.st16{font-size:5px;}
</style>
<path class="st0" d="z"/>
<path class="st1" d="M532.5,355.9l-10.4-0.2 M522.1,301.6v54 M522.1,355.6l-17.9,3.2"/>
<path class="st2" d="M532.5,355.9l-10.4-0.2v-54L532.5,355.9z"/>
<path class="st1" d="M532.5,301.9l-10.4-0.2 M522.1,301.6l-17.9,3.2 M532.5,301.9v54 M532.5,355.9l-17.9,3.2"/>
<path class="st2" d="M532.5,301.9v54l-10.4-54.2L532.5,301.9z"/>
<path class="st1" d="M532.5,301.9l-17.9,3.2 M592.2,350.6l-43.1-0.9 M549.1,309.7v40 M549.1,349.7l-13.2,2.4"/>
<path class="st2" d="M504.3,358.8l17.9-3.2l10.4,0.2L504.3,358.8z"/>
<path class="st1" d="M591.6,346.7l-43.1-0.9 M548.5,340.8v5 M548.5,345.8l-1.7,0.3"/>
<path class="st2" d="M522.1,301.6v54l-17.9-50.8L522.1,301.6z"/>
<path class="st1" d="M591.6,341.8l-43.1-0.9 M548.5,340.8l-1.7,0.3 M592.2,310.6l-43.1-0.9 M549.1,309.7l-13.2,2.4"/>
<path class="st3" d="M548.5,340.8v5l-1.7-4.7L548.5,340.8z"/>
<path class="st2" d="M514.6,359.1l17.9-3.2v-54L514.6,359.1z"/>
<path class="st3" d="M548.5,345.8l-1.7,0.3v-5L548.5,345.8z"/>
<path class="st2" d="M514.6,305l17.9-3.2l-10.4-0.2L514.6,305z M592.2,350.6l-43.1-0.9v-40L592.2,350.6z"/>
<path class="st1" d="M546.9,341.1v5 M546.9,346.1l43.1,0.9 M546.9,341.1l43.1,0.9"/>
<path class="st3" d="M591.6,346.7l-43.1-0.9v-5L591.6,346.7z M546.9,346.1l1.7-0.3l43.1,0.9L546.9,346.1z"/>
<path class="st1" d="M523.5,357.2l-10.4-0.2 M513.1,346v11 M513.1,357l-3.6,0.6 M523.5,346.3l-10.4-0.2 M513.1,346l-3.6,0.6"/>
<path class="st3" d="M523.5,357.2l-10.4-0.2v-11L523.5,357.2z M546.9,341.1l43.1,0.9l-41.4-1.2L546.9,341.1z M523.5,346.3v11
	L513.1,346L523.5,346.3z"/>
<path class="st2" d="M592.2,310.6v40l-43.1-40.9L592.2,310.6z"/>
<path class="st3" d="M546.9,341.1v5l43.1-4L546.9,341.1z M591.6,341.8v5l-43.1-5.9L591.6,341.8z"/>
<path class="st1" d="M523.5,346.3v11 M523.5,357.2l-3.6,0.6 M523.5,346.3v11 M523.5,357.2l-3.6,0.6 M523.5,357.2l17.6-10.4"/>
<path class="st3" d="M513.1,346v11l-3.6-10.3L513.1,346z"/>
<path class="st1" d="M523.5,346.3l-3.6,0.6 M523.5,346.3l-3.6,0.6 M523.5,346.3l17.6,0.6"/>
<path class="st3" d="M509.5,357.7l3.6-0.6l10.4,0.2L509.5,357.7z M589.9,342l1.7-0.3l-43.1-0.9L589.9,342z"/>
<path class="st2" d="M549.1,309.7v40l-13.2-37.6L549.1,309.7z"/>
<path class="st3" d="M589.9,347l-43.1-0.9l44.7,0.6L589.9,347z"/>
<path class="st1" d="M592.2,310.6v40 M592.2,350.6l-13.2,2.4"/>
<path class="st3" d="M519.8,346.9l3.6-0.6l-10.4-0.2L519.8,346.9z M513.1,357l-3.6,0.6v-11L513.1,357z"/>
<path class="st4" d="M523.5,346.3v11l-3.6,0.6L523.5,346.3z"/>
<path class="st3" d="M519.8,357.9l3.6-0.6v-11L519.8,357.9z"/>
<path class="st4" d="M523.5,357.2v-11l17.6,0.6L523.5,357.2z"/>
<path class="st3" d="M546.9,346.1l43.1,0.9v-5L546.9,346.1z"/>
<path class="st1" d="M591.6,341.8v5 M591.6,346.7l-1.7,0.3 M591.6,346.7l17.1-4.2 M591.6,341.8v5 M591.6,346.7l-1.7,0.3
	 M591.6,341.8l-1.7,0.3 M591.6,341.8l17.1,0.8 M591.6,341.8l-1.7,0.3"/>
<path class="st3" d="M509.5,346.7l10.4,0.2l-6.7-0.9L509.5,346.7z"/>
<path class="st1" d="M592.2,310.6l-13.2,2.4"/>
<path class="st2" d="M535.8,352l13.2-2.4l43.1,0.9L535.8,352z M522.1,355.6l-17.9,3.2v-54L522.1,355.6z"/>
<path class="st3" d="M519.8,357.9l-10.4-0.2l14-0.4L519.8,357.9z"/>
<path class="st4" d="M591.6,341.8v5l-1.7,0.3L591.6,341.8z"/>
<path class="st3" d="M589.9,347l1.7-0.3v-5L589.9,347z"/>
<path class="st1" d="M509.5,346.7v11 M509.5,357.7l10.4,0.2"/>
<path class="st2" d="M514.6,359.1l-10.4-0.2l28.3-3L514.6,359.1z"/>
<path class="st4" d="M519.8,357.9l3.6-0.6l17.6-10.4L519.8,357.9z M523.5,346.3l-3.6,11.6v-11L523.5,346.3z"/>
<path class="st3" d="M519.8,346.9v11l3.6-11.6L519.8,346.9z"/>
<path class="st1" d="M509.5,346.7l10.4,0.2"/>
<path class="st4" d="M523.5,346.3l-3.6,0.6l21.2,0L523.5,346.3z M591.6,341.8l-1.7,5.3v-5L591.6,341.8z"/>
<path class="st3" d="M589.9,342v5l1.7-5.3L589.9,342z M509.5,346.7v11l10.4-10.8L509.5,346.7z"/>
<path class="st4" d="M591.6,346.7v-5l17.1,0.8L591.6,346.7z"/>
<path class="st2" d="M504.3,304.8l10.4,0.2l7.5-3.4L504.3,304.8z"/>
<path class="st3" d="M509.5,357.7l10.4,0.2v-11L509.5,357.7z"/>
<path class="st1" d="M589.9,342v5 M589.9,347v-5 M589.9,347l18.8-4.5 M589.9,342l18.8,0.5"/>
<path class="st4" d="M589.9,347l1.7-0.3l17.1-4.2L589.9,347z"/>
<path class="st1" d="M519.8,346.9v11 M519.8,357.9v-11 M519.8,357.9l21.2-11"/>
<path class="st2" d="M514.6,305v54l17.9-57.2L514.6,305z"/>
<path class="st4" d="M591.6,341.8l-1.7,0.3l18.8,0.5L591.6,341.8z M519.8,346.9v11l21.2-11L519.8,346.9z"/>
<path class="st1" d="M519.8,346.9l21.2,0"/>
<path class="st4" d="M589.9,342v5l18.8-4.5L589.9,342z"/>
<path class="st2" d="M578.9,313l13.2-2.4l-43.1-0.9L578.9,313z"/>
<path class="st1" d="M662.2,348.8l-52.3-1.1 M609.9,314.8v32.9 M609.9,347.7l-10.9,1.9"/>
<path class="st2" d="M549.1,349.7l-13.2,2.4v-40L549.1,349.7z"/>
<path class="st1" d="M662.2,315.9l-52.3-1.1 M609.9,314.8l-10.9,1.9"/>
<path class="st2" d="M578.9,353l13.2-2.4v-40L578.9,353z M662.2,348.8l-52.3-1.1v-32.9L662.2,348.8z M535.8,312.1l43.1,0.9
	l-29.8-3.3L535.8,312.1z"/>
<path class="st1" d="M504.3,304.8v54 M504.3,358.8l10.4,0.2"/>
<path class="st2" d="M578.9,353l-43.1-0.9l56.3-1.4L578.9,353z M609.9,314.8v32.9l-10.9-31L609.9,314.8z"/>
<path class="st1" d="M504.3,304.8l10.4,0.2"/>
<path class="st2" d="M504.3,304.8v54l10.4-53.8L504.3,304.8z M504.3,358.8l10.4,0.2v-54L504.3,358.8z"/>
<path class="st1" d="M514.6,305v54 M535.8,312.1v40 M535.8,352l43.1,0.9"/>
<path class="st2" d="M662.2,315.9v32.9l-52.3-34L662.2,315.9z"/>
<path class="st1" d="M535.8,312.1l43.1,0.9 M657.3,332l-52.3-1.1 M605,327.9v3 M605,330.9l-1,0.2 M657.3,329l-52.3-1.1 M605,327.9
	l-1,0.2"/>
<path class="st3" d="M605,327.9v3l-1-2.8L605,327.9z"/>
<path class="st2" d="M599,349.6l10.9-1.9l52.3,1.1L599,349.6z M578.9,313v40l13.2-42.4L578.9,313z"/>
<path class="st3" d="M605,330.9l-1,0.2v-3L605,330.9z"/>
<path class="st1" d="M604,328.1v3 M604,331.1l52.3,1.1 M604,328.1l52.3,1.1 M662.2,315.9v32.9 M662.2,348.8l-10.9,1.9"/>
<path class="st2" d="M535.8,312.1v40l43.1-39.1L535.8,312.1z"/>
<path class="st1" d="M662.2,315.9l-10.9,1.9"/>
<path class="st3" d="M657.3,332l-52.3-1.1v-3L657.3,332z"/>
<path class="st2" d="M609.9,347.7l-10.9,1.9v-32.9L609.9,347.7z"/>
<path class="st3" d="M604,331.1l1-0.2l52.3,1.1L604,331.1z M604,328.1l52.3,1.1l-51.3-1.3L604,328.1z"/>
<path class="st2" d="M535.8,352l43.1,0.9v-40L535.8,352z"/>
<path class="st3" d="M604,328.1v3l52.3-1.9L604,328.1z"/>
<path class="st2" d="M651.3,317.9l10.9-1.9l-52.3-1.1L651.3,317.9z"/>
<path class="st3" d="M657.3,329v3l-52.3-4.1L657.3,329z"/>
<path class="st1" d="M578.9,313v40"/>
<path class="st3" d="M656.3,329.2l1-0.2l-52.3-1.1L656.3,329.2z"/>
<path class="st1" d="M736,347.1l-56.2-1.2 M679.9,320.2v25.6 M679.9,345.8l-8.5,1.5"/>
<path class="st2" d="M599,316.7l52.3,1.1l-41.4-3.1L599,316.7z"/>
<path class="st3" d="M656.3,332.2l-52.3-1.1l53.3,1L656.3,332.2z"/>
<path class="st2" d="M651.3,350.8l10.9-1.9v-32.9L651.3,350.8z"/>
<path class="st3" d="M604,331.1l52.3,1.1v-3L604,331.1z"/>
<path class="st1" d="M736,321.5l-56.2-1.2 M679.9,320.2l-8.5,1.5 M599,316.7v32.9 M599,349.6l52.3,1.1"/>
<path class="st2" d="M651.3,350.8l-52.3-1.1l63.2-0.8L651.3,350.8z"/>
<path class="st1" d="M599,316.7l52.3,1.1 M657.3,329v3 M657.3,332l-1,0.2 M657.3,332l18.4-0.4 M657.3,329v3 M657.3,332l-1,0.2
	 M657.3,329l-1,0.2 M657.3,329l18.4,2.6 M657.3,329l-1,0.2"/>
<path class="st4" d="M657.3,329v3l-1,0.2L657.3,329z"/>
<path class="st3" d="M656.3,332.2l1-0.2v-3L656.3,332.2z"/>
<path class="st4" d="M657.3,329l-1,3.2v-3L657.3,329z"/>
<path class="st3" d="M656.3,329.2v3l1-3.2L656.3,329.2z"/>
<path class="st1" d="M733.9,336.4l-56.2-1.2 M677.7,332.2v3 M677.7,335.2l-1,0.2 M733.9,333.4l-56.2-1.2 M677.7,332.2l-1,0.2"/>
<path class="st2" d="M736,347.1l-56.2-1.2v-25.6L736,347.1z"/>
<path class="st4" d="M657.3,332v-3l18.4,2.6L657.3,332z"/>
<path class="st1" d="M656.3,332.2v-3 M656.3,332.2l19.4-0.6 M656.3,329.2v3 M656.3,329.2l19.4,2.4"/>
<path class="st3" d="M677.7,332.2v3l-1-2.8L677.7,332.2z"/>
<path class="st4" d="M656.3,332.2l1-0.2l18.4-0.4L656.3,332.2z M657.3,329l-1,0.2l19.4,2.4L657.3,329z"/>
<path class="st3" d="M677.7,335.2l-1,0.2v-3L677.7,335.2z"/>
<path class="st2" d="M679.9,320.2v25.6l-8.5-24.1L679.9,320.2z"/>
<path class="st4" d="M656.3,329.2v3l19.4-0.6L656.3,329.2z"/>
<path class="st1" d="M676.7,332.4v3 M676.7,335.4l56.2,1.2 M676.7,332.4l56.2,1.2"/>
<path class="st2" d="M599,316.7v32.9l52.3-31.8L599,316.7z M651.3,317.9v32.9l10.9-34.8L651.3,317.9z"/>
<path class="st3" d="M733.9,336.4l-56.2-1.2v-3L733.9,336.4z"/>
<path class="st2" d="M736,321.5v25.6l-56.2-26.8L736,321.5z"/>
<path class="st3" d="M676.7,335.4l1-0.2l56.2,1.2L676.7,335.4z"/>
<path class="st2" d="M671.4,347.3l8.5-1.5l56.2,1.2L671.4,347.3z M599,349.6l52.3,1.1v-32.9L599,349.6z"/>
<path class="st3" d="M676.7,332.4l56.2,1.2l-55.2-1.4L676.7,332.4z M676.7,332.4v3l56.2-1.8L676.7,332.4z"/>
<path class="st2" d="M679.9,345.8l-8.5,1.5v-25.6L679.9,345.8z"/>
<path class="st1" d="M736,321.5v25.6 M736,347.1l-8.5,1.5"/>
<path class="st3" d="M733.9,333.4v3l-56.2-4.2L733.9,333.4z"/>
<path class="st1" d="M651.3,317.9v32.9"/>
<path class="st3" d="M732.9,333.6l1-0.2l-56.2-1.2L732.9,333.6z"/>
<path class="st1" d="M736,321.5l-8.5,1.5"/>
<path class="st3" d="M732.9,336.6l-56.2-1.2l57.2,1.1L732.9,336.6z"/>
<path class="st2" d="M727.5,323l8.5-1.5l-56.2-1.2L727.5,323z"/>
<path class="st3" d="M676.7,335.4l56.2,1.2v-3L676.7,335.4z"/>
<path class="st1" d="M671.4,321.7v25.6 M671.4,347.3l56.2,1.2"/>
<path class="st2" d="M671.4,321.7l56.2,1.2l-47.7-2.7L671.4,321.7z"/>
<path class="st1" d="M671.4,321.7l56.2,1.2 M811.1,348.7l-56.2-1.2 M754.9,321.9v25.6 M754.9,347.5l-8.5,1.5 M733.9,333.4v3
	 M733.9,336.4l-1,0.2 M733.9,333.4v3 M733.9,336.4l-1,0.2 M733.9,336.4l18.4-1 M733.9,333.4l-1,0.2 M733.9,333.4l-1,0.2
	 M733.9,333.4l18.4,2"/>
<path class="st3" d="M732.9,336.6l1-0.2v-3L732.9,336.6z"/>
<path class="st4" d="M733.9,333.4v3l-1,0.2L733.9,333.4z"/>
<path class="st1" d="M811.1,323.1l-56.2-1.2 M754.9,321.9l-8.5,1.5"/>
<path class="st2" d="M727.5,348.6l8.5-1.5v-25.6L727.5,348.6z"/>
<path class="st3" d="M732.9,333.6v3l1-3.2L732.9,333.6z"/>
<path class="st4" d="M733.9,333.4l-1,3.2v-3L733.9,333.4z"/>
<path class="st2" d="M727.5,348.6l-56.2-1.2l64.6-0.3L727.5,348.6z"/>
<path class="st4" d="M733.9,336.4v-3l18.4,2L733.9,336.4z"/>
<path class="st1" d="M732.9,333.6v3 M732.9,336.6v-3 M732.9,336.6l19.4-1.2 M732.9,333.6l19.4,1.8 M810.1,338.1l-56.2-1.2
	 M753.9,333.9v3 M753.9,336.9l-1,0.2 M810.1,335.1l-56.2-1.2 M753.9,333.9l-1,0.2"/>
<path class="st4" d="M732.9,336.6l1-0.2l18.4-1L732.9,336.6z M733.9,333.4l-1,0.2l19.4,1.8L733.9,333.4z"/>
<path class="st3" d="M753.9,333.9v3l-1-2.8L753.9,333.9z"/>
<path class="st4" d="M732.9,333.6v3l19.4-1.2L732.9,333.6z"/>
<path class="st3" d="M753.9,336.9l-1,0.2v-3L753.9,336.9z"/>
<path class="st2" d="M671.4,321.7v25.6l56.2-24.4L671.4,321.7z"/>
<path class="st1" d="M752.9,334v3 M752.9,337l56.2,1.2 M752.9,334l56.2,1.2"/>
<path class="st2" d="M811.1,348.7l-56.2-1.2v-25.6L811.1,348.7z M754.9,321.9v25.6l-8.5-24.1L754.9,321.9z"/>
<path class="st3" d="M810.1,338.1l-56.2-1.2v-3L810.1,338.1z"/>
<path class="st2" d="M727.5,323v25.6l8.5-27.1L727.5,323z"/>
<path class="st3" d="M752.9,337l1-0.2l56.2,1.2L752.9,337z"/>
<path class="st2" d="M671.4,347.3l56.2,1.2V323L671.4,347.3z"/>
<path class="st3" d="M752.9,334l56.2,1.2l-55.2-1.4L752.9,334z M752.9,334v3l56.2-1.8L752.9,334z"/>
<path class="st2" d="M811.1,323.1v25.6l-56.2-26.8L811.1,323.1z M746.4,349l8.5-1.5l56.2,1.2L746.4,349z M754.9,347.5l-8.5,1.5
	v-25.6L754.9,347.5z"/>
<path class="st3" d="M810.1,335.1v3l-56.2-4.2L810.1,335.1z"/>
<path class="st1" d="M727.5,323v25.6"/>
<path class="st3" d="M809.1,335.3l1-0.2l-56.2-1.2L809.1,335.3z M809.1,338.3l-56.2-1.2l57.2,1.1L809.1,338.3z M752.9,337l56.2,1.2
	v-3L752.9,337z"/>
<path class="st1" d="M811.1,323.1v25.6 M811.1,348.7l-8.5,1.5 M811.1,323.1l-8.5,1.5"/>
<path class="st2" d="M802.6,324.6l8.5-1.5l-56.2-1.2L802.6,324.6z"/>
<path class="st1" d="M810.1,335.1v3 M810.1,338.1l-1,0.2 M810.1,335.1v3 M810.1,338.1l-1,0.2 M810.1,338.1l18.4-1 M810.1,335.1
	l-1,0.2 M810.1,335.1l-1,0.2 M810.1,335.1l18.4,2"/>
<path class="st3" d="M809.1,338.3l1-0.2v-3L809.1,338.3z"/>
<path class="st4" d="M810.1,335.1v3l-1,0.2L810.1,335.1z"/>
<path class="st1" d="M746.4,323.4V349 M746.4,349l56.2,1.2"/>
<path class="st2" d="M746.4,323.4l56.2,1.2l-47.7-2.7L746.4,323.4z"/>
<path class="st3" d="M809.1,335.3v3l1-3.2L809.1,335.3z"/>
<path class="st4" d="M810.1,335.1l-1,3.2v-3L810.1,335.1z"/>
<path class="st1" d="M746.4,323.4l56.2,1.2"/>
<path class="st4" d="M810.1,338.1v-3l18.4,2L810.1,338.1z"/>
<path class="st1" d="M809.1,335.3v3 M809.1,338.3v-3 M809.1,338.3l19.4-1.2 M809.1,335.3l19.4,1.8 M882.3,350.2l-52.3-1.1
	 M829.9,323.5v25.6 M829.9,349.1l-8.5,1.5"/>
<path class="st4" d="M809.1,338.3l1-0.2l18.4-1L809.1,338.3z M810.1,335.1l-1,0.2l19.4,1.8L810.1,335.1z M809.1,335.3v3l19.4-1.2
	L809.1,335.3z"/>
<path class="st1" d="M882.3,324.6l-52.3-1.1 M829.9,323.5l-8.5,1.5"/>
<path class="st2" d="M802.6,350.2l8.5-1.5v-25.6L802.6,350.2z M802.6,350.2l-56.2-1.2l64.6-0.3L802.6,350.2z M746.4,323.4V349
	l56.2-24.4L746.4,323.4z M882.3,350.2l-52.3-1.1v-25.6L882.3,350.2z M829.9,323.5v25.6l-8.5-24.1L829.9,323.5z M802.6,324.6v25.6
	l8.5-27.1L802.6,324.6z M746.4,349l56.2,1.2v-25.6L746.4,349z M882.3,324.6v25.6l-52.3-26.7L882.3,324.6z M821.5,350.6l8.5-1.5
	l52.3,1.1L821.5,350.6z M829.9,349.1l-8.5,1.5V325L829.9,349.1z"/>
<path class="st1" d="M802.6,324.6v25.6 M882.3,324.6v25.6 M882.3,350.2l-8.5,1.5 M882.3,324.6l-8.5,1.5"/>
<path class="st2" d="M873.8,326.2l8.5-1.5l-52.3-1.1L873.8,326.2z M821.5,325l52.3,1.1l-43.9-2.7L821.5,325z"/>
<path class="st1" d="M821.5,325v25.6 M821.5,350.6l52.3,1.1 M821.5,325l52.3,1.1"/>
<path class="st2" d="M873.8,351.8l8.5-1.5v-25.6L873.8,351.8z M873.8,351.8l-52.3-1.1l60.8-0.4L873.8,351.8z M821.5,325v25.6
	l52.3-24.5L821.5,325z"/>
<path class="st1" d="M882.2,338.3l10.7,0.2 M907.9,376.7l-6.5-0.1 M901.3,300.4v76.1 M901.3,376.5l-2.3,0.4"/>
<path class="st2" d="M873.8,326.2v25.6l8.5-27.1L873.8,326.2z"/>
<path class="st1" d="M907.9,300.6v76.1 M907.9,376.7l-2.3,0.4"/>
<path class="st2" d="M907.9,376.7l-6.5-0.1v-76.1L907.9,376.7z M899,376.9l2.3-0.4l6.5,0.1L899,376.9z M821.5,350.6l52.3,1.1v-25.6
	L821.5,350.6z"/>
<path d="M893.4,336.4l-1,0.2l6.8,2.1L893.4,336.4z M892.2,339.4l0.8,1.6l6.3-2.4L892.2,339.4z"/>
<path class="st2" d="M907.9,300.6v76.1l-6.5-76.2L907.9,300.6z"/>
<path class="st1" d="M907.9,300.6l-6.5-0.1 M901.3,300.4l-2.3,0.4"/>
<path d="M892.5,336.6l-0.3,2.8l7.1-0.8L892.5,336.6z"/>
<path class="st2" d="M901.3,300.4v76.1l-2.3-75.7L901.3,300.4z M905.6,377.1l-6.5-0.1l8.8-0.3L905.6,377.1z M901.3,376.5l-2.3,0.4
	v-76.1L901.3,376.5z M905.6,377.1l2.3-0.4v-76.1L905.6,377.1z"/>
<path class="st1" d="M899,300.8v76.1 M899,376.9l6.5,0.1 M907.9,300.6l-2.3,0.4 M907.7,338.9l10.7,0.2"/>
<path class="st2" d="M905.6,301l2.3-0.4l-6.5-0.1L905.6,301z"/>
<path class="st1" d="M905.6,301v76.1 M933.3,377.2l-6.5-0.1 M926.7,301v76.1 M926.7,377.1l-2.3,0.4 M873.8,326.2v25.6"/>
<path class="st2" d="M899,376.9l6.5,0.1V301L899,376.9z M905.6,301v76.1l2.3-76.5L905.6,301z M899,300.8l6.5,0.1l-4.3-0.6L899,300.8
	z M899,300.8v76.1l6.5-76L899,300.8z"/>
<path class="st1" d="M933.3,301.1v76.1 M933.3,377.2l-2.3,0.4"/>
<path class="st2" d="M933.3,377.2l-6.5-0.1V301L933.3,377.2z"/>
<path class="st1" d="M899,300.8l6.5,0.1"/>
<path class="st2" d="M924.5,377.5l2.3-0.4l6.5,0.1L924.5,377.5z"/>
<path d="M918.8,337l-1,0.2l6.8,2.1L918.8,337z M917.6,340l0.8,1.6l6.3-2.4L917.6,340z"/>
<path class="st2" d="M933.3,301.1v76.1l-6.5-76.2L933.3,301.1z"/>
<path class="st1" d="M933.3,301.1l-6.5-0.1 M926.7,301l-2.3,0.4"/>
<path d="M917.9,337.2l-0.3,2.8l7.1-0.8L917.9,337.2z"/>
<path class="st2" d="M926.7,301v76.1l-2.3-75.7L926.7,301z M931,377.6l-6.5-0.1l8.8-0.3L931,377.6z M926.7,377.1l-2.3,0.4v-76.1
	L926.7,377.1z M931,377.6l2.3-0.4v-76.1L931,377.6z"/>
<path class="st1" d="M924.5,301.4v76.1 M924.5,377.5l6.5,0.1 M933.3,301.1l-2.3,0.4 M933.1,339.4l10.7,0.2"/>
<path class="st2" d="M931,301.5l2.3-0.4l-6.5-0.1L931,301.5z"/>
<path class="st1" d="M931,301.5v76.1 M958.7,374.3l-6.5-0.1 M952.2,305v69.2 M952.2,374.2l-2.3,0.4"/>
<path class="st2" d="M924.5,377.5l6.5,0.1v-76.1L924.5,377.5z M931,301.5v76.1l2.3-76.5L931,301.5z M924.5,301.4l6.5,0.1l-4.3-0.6
	L924.5,301.4z M924.5,301.4v76.1l6.5-76L924.5,301.4z"/>
<path class="st1" d="M924.5,301.4l6.5,0.1"/>
<path class="st2" d="M958.7,374.3l-6.5-0.1V305L958.7,374.3z"/>
<path class="st1" d="M958.7,305.1v69.2 M958.7,374.3l-2.3,0.4"/>
<path class="st2" d="M949.9,374.6l2.3-0.4l6.5,0.1L949.9,374.6z"/>
<path d="M944.3,337.5l-1,0.2l6.8,2.1L944.3,337.5z M943,340.6l0.8,1.6l6.3-2.4L943,340.6z"/>
<path class="st1" d="M958.7,305.1l-6.5-0.1 M952.2,305l-2.3,0.4"/>
<path class="st2" d="M958.7,305.1v69.2l-6.5-69.3L958.7,305.1z"/>
<path d="M943.3,337.7l-0.3,2.8l7.1-0.8L943.3,337.7z"/>
<path class="st2" d="M952.2,305v69.2l-2.3-68.8L952.2,305z M952.2,374.2l-2.3,0.4v-69.2L952.2,374.2z M956.4,374.7l-6.5-0.1l8.8-0.3
	L956.4,374.7z M956.4,374.7l2.3-0.4v-69.2L956.4,374.7z"/>
<path class="st1" d="M949.9,305.4v69.2 M949.9,374.6l6.5,0.1 M958.7,305.1l-2.3,0.4"/>
<path class="st2" d="M956.4,305.6l2.3-0.4l-6.5-0.1L956.4,305.6z"/>
<path class="st1" d="M958.5,340l10.7,0.2 M956.4,305.6v69.2"/>
<path class="st2" d="M949.9,305.4l6.5,0.1l-4.3-0.6L949.9,305.4z M949.9,374.6l6.5,0.1v-69.2L949.9,374.6z M956.4,305.6v69.2
	l2.3-69.6L956.4,305.6z M949.9,305.4v69.2l6.5-69L949.9,305.4z"/>
<path class="st1" d="M984.1,354.1l-6.5-0.1 M977.6,326.3V354 M977.6,354l-2.3,0.4 M949.9,305.4l6.5,0.1"/>
<path class="st2" d="M984.1,354.1l-6.5-0.1v-27.7L984.1,354.1z"/>
<path class="st1" d="M984.1,326.5l-6.5-0.1 M977.6,326.3l-2.3,0.4 M984.1,326.5v27.7 M984.1,354.1l-2.3,0.4"/>
<path d="M969.7,338.1l-1,0.2l6.8,2.1L969.7,338.1z"/>
<path class="st2" d="M984.1,326.5v27.7l-6.5-27.8L984.1,326.5z M975.3,354.4l2.3-0.4l6.5,0.1L975.3,354.4z"/>
<path d="M968.4,341.1l0.8,1.6l6.3-2.4L968.4,341.1z"/>
<path class="st2" d="M977.6,326.3V354l-2.3-27.3L977.6,326.3z"/>
<path d="M968.7,338.3l-0.3,2.8l7.1-0.8L968.7,338.3z"/>
<path class="st1" d="M984.1,326.5l-2.3,0.4"/>
<path class="st2" d="M977.6,354l-2.3,0.4v-27.7L977.6,354z M981.8,354.5l2.3-0.4v-27.7L981.8,354.5z M981.8,326.9l2.3-0.4l-6.5-0.1
	L981.8,326.9z M981.8,354.5l-6.5-0.1l8.8-0.3L981.8,354.5z"/>
<path class="st1" d="M975.3,326.7v27.7 M975.3,354.4l6.5,0.1"/>
<path class="st2" d="M975.3,326.7l6.5,0.1l-4.3-0.6L975.3,326.7z M981.8,326.9v27.7l2.3-28.1L981.8,326.9z"/>
<path class="st1" d="M975.3,326.7l6.5,0.1"/>
<path class="st2" d="M975.3,326.7v27.7l6.5-27.5L975.3,326.7z M975.3,354.4l6.5,0.1v-27.7L975.3,354.4z"/>
<path class="st1" d="M981.8,326.9v27.7"/>
<path class="st0" d="z"/>
<path class="st2" d="M975.8,436.6l-6.5-0.1v-69.2L975.8,436.6z"/>
<path class="st1" d="M975.8,367.4v69.2 M975.8,436.6l-2.3,0.4"/>
<path class="st2" d="M967,436.9l2.3-0.4l6.5,0.1L967,436.9z"/>
<path d="M961.4,399.8l-1,0.2l6.8,2.1L961.4,399.8z M960.1,402.8l0.8,1.6l6.3-2.4L960.1,402.8z"/>
<path class="st1" d="M975.8,367.4l-6.5-0.1 M969.3,367.3l-2.3,0.4"/>
<path class="st2" d="M975.8,367.4v69.2l-6.5-69.3L975.8,367.4z"/>
<path d="M960.4,400l-0.3,2.8l7.1-0.8L960.4,400z"/>
<path class="st2" d="M969.3,367.3v69.2l-2.3-68.8L969.3,367.3z M969.3,436.5l-2.3,0.4v-69.2L969.3,436.5z M973.5,437l-6.5-0.1
	l8.8-0.3L973.5,437z M973.5,437l2.3-0.4v-69.2L973.5,437z"/>
<path class="st1" d="M967,367.7v69.2 M967,436.9l6.5,0.1 M975.8,367.4l-2.3,0.4"/>
<path class="st2" d="M973.5,367.8l2.3-0.4l-6.5-0.1L973.5,367.8z"/>
<path class="st1" d="M975.6,402.2l10.7,0.2 M973.5,367.8V437 M1001.2,437.2l-6.5-0.1 M994.7,367.8V437 M994.7,437l-2.3,0.4"/>
<path class="st2" d="M967,367.7l6.5,0.1l-4.3-0.6L967,367.7z M967,436.9l6.5,0.1v-69.2L967,436.9z M973.5,367.8V437l2.3-69.6
	L973.5,367.8z M967,367.7v69.2l6.5-69L967,367.7z"/>
<path class="st1" d="M967,367.7l6.5,0.1"/>
<path class="st2" d="M1001.2,437.2l-6.5-0.1v-69.2L1001.2,437.2z"/>
<path class="st1" d="M1001.2,368v69.2 M1001.2,437.2l-2.3,0.4"/>
<path class="st2" d="M992.4,437.4l2.3-0.4l6.5,0.1L992.4,437.4z"/>
<path d="M986.8,400.4l-1,0.2l6.8,2.1L986.8,400.4z M985.5,403.4l0.8,1.6l6.3-2.4L985.5,403.4z"/>
<path class="st1" d="M1001.2,368l-6.5-0.1 M994.7,367.8l-2.3,0.4"/>
<path class="st2" d="M1001.2,368v69.2l-6.5-69.3L1001.2,368z"/>
<path d="M985.8,400.5l-0.3,2.8l7.1-0.8L985.8,400.5z"/>
<path class="st2" d="M994.7,367.8V437l-2.3-68.8L994.7,367.8z M994.7,437l-2.3,0.4v-69.2L994.7,437z M999,437.6l-6.5-0.1l8.8-0.3
	L999,437.6z M999,437.6l2.3-0.4V368L999,437.6z"/>
<path class="st1" d="M992.4,368.2v69.2 M992.4,437.4l6.5,0.1 M1001.2,368l-2.3,0.4"/>
<path class="st2" d="M999,368.4l2.3-0.4l-6.5-0.1L999,368.4z"/>
<path class="st1" d="M1001,402.8l10.7,0.2 M999,368.4v69.2"/>
<path class="st2" d="M992.4,368.2l6.5,0.1l-4.3-0.6L992.4,368.2z M992.4,437.4l6.5,0.1v-69.2L992.4,437.4z M999,368.4v69.2l2.3-69.6
	L999,368.4z M992.4,368.2v69.2l6.5-69L992.4,368.2z"/>
<path class="st1" d="M1026.7,406.6l-6.5-0.1 M1020.1,399.5v6.9 M1020.1,406.4l-2.3,0.4 M992.4,368.2l6.5,0.1 M1026.7,399.7l-6.5-0.1
	 M1020.1,399.5l-2.3,0.4"/>
<path class="st2" d="M1026.7,406.6l-6.5-0.1v-6.9L1026.7,406.6z"/>
<path d="M1012.2,400.9l-1,0.2l6.8,2.1L1012.2,400.9z"/>
<path class="st2" d="M1026.7,399.7v6.9l-6.5-7.1L1026.7,399.7z"/>
<path class="st1" d="M1026.7,399.7v6.9 M1026.7,406.6l-2.3,0.4"/>
<path d="M1011,403.9l0.8,1.6l6.3-2.4L1011,403.9z"/>
<path class="st2" d="M1020.1,399.5v6.9l-2.3-6.5L1020.1,399.5z"/>
<path class="st1" d="M1026.7,399.7l-2.3,0.4"/>
<path d="M1011.3,401.1l-0.3,2.8l7.1-0.8L1011.3,401.1z"/>
<path class="st2" d="M1017.8,406.8l2.3-0.4l6.5,0.1L1017.8,406.8z M1024.4,400.1l2.3-0.4l-6.5-0.1L1024.4,400.1z M1020.1,406.4
	l-2.3,0.4v-6.9L1020.1,406.4z M1024.4,407l2.3-0.4v-6.9L1024.4,407z M1017.8,399.9l6.5,0.1l-4.3-0.6L1017.8,399.9z M1024.4,407
	l-6.5-0.1l8.8-0.3L1024.4,407z"/>
<path class="st1" d="M1017.8,399.9v6.9 M1017.8,406.8l6.5,0.1"/>
<path class="st2" d="M1024.4,400.1v6.9l2.3-7.3L1024.4,400.1z"/>
<path class="st1" d="M1017.8,399.9l6.5,0.1"/>
<path class="st2" d="M1017.8,399.9v6.9l6.5-6.8L1017.8,399.9z M1017.8,406.8l6.5,0.1v-6.9L1017.8,406.8z"/>
<path class="st1" d="M1024.4,400.1v6.9"/>
<g>
	<defs>
		<rect id="SVGID_1_" x="951.2" y="365.3" width="80.2" height="75.7"/>
	</defs>
	<clipPath id="SVGID_2_">
		<use xlink:href="#SVGID_1_"  style="overflow:visible;"/>
	</clipPath>
	<path class="st5" d="M941.6,363.7v76.1 M941.6,439.8l6.5,0.1 M950.4,363.4l-2.3,0.4 M950.2,401.7l10.7,0.2"/>
	<path class="st5" d="M948.1,363.8v76.1 M975.8,436.6l-6.5-0.1 M969.3,367.3v69.2 M969.3,436.5l-2.3,0.4"/>
</g>
<line class="st1" x1="933.1" y1="339.4" x2="943" y2="401.4"/>
<g>
	<g>
		<g class="st6">
			<g>
				<polygon class="st7" points="938.3,396.4 943.4,395.1 943.7,407 938.6,408.4 				"/>
			</g>
			<g>
				<polygon class="st8" points="938.6,408.4 943.7,407 955,407 949.9,408.4 				"/>
			</g>
			<g>
				<polygon class="st9" points="938.3,396.4 943.4,395.1 954.6,395.1 949.5,396.4 				"/>
			</g>
			<g>
				<polygon class="st10" points="949.5,396.4 949.9,408.4 938.6,408.4 938.3,396.4 				"/>
			</g>
			<g>
				<polygon class="st11" points="949.5,396.4 954.6,395.1 955,407 949.9,408.4 				"/>
			</g>
			<g>
				<polygon class="st7" points="949.7,396.2 954.9,394.9 955.2,407.3 950.1,408.6 				"/>
			</g>
			<g>
				<polygon class="st8" points="938,396.2 943.1,394.9 954.9,394.9 949.7,396.2 				"/>
			</g>
			<g>
				<path class="st12" d="M938,396.2h11.7l0.4,12.4h-11.7L938,396.2z M949.9,408.4l-0.4-11.9h-11.2l0.4,11.9H949.9"/>
			</g>
		</g>
	</g>
</g>
<text transform="matrix(1 0 0 1 940.9967 406.519)" class="st13 st14 st15">R</text>
<text transform="matrix(1 0 0 1 966.9987 445.1836)" class="st14 st16">1024</text>
<text transform="matrix(1 0 0 1 992.4166 445.1836)" class="st14 st16">1024</text>
<text transform="matrix(1 0 0 1 1021.1062 413.3104)" class="st14 st16">2</text>
<text transform="matrix(1 0 0 1 950.0743 382.8188)" class="st14 st16">1024</text>
<text transform="matrix(1 0 0 1 898.5002 382.8188)" class="st14 st16">2048</text>
<text transform="matrix(1 0 0 1 923.9192 382.8192)" class="st14 st16">2048</text>
<text transform="matrix(1 0 0 1 978.5627 359.0555)" class="st14 st16">c</text>
<text transform="matrix(1 0 0 1 749.8975 330.9027)" class="st14 st16">3</text>
<text transform="matrix(1 0 0 1 847.6283 359.0559)" class="st14 st16">256</text>
<text transform="matrix(1 0 0 1 774.5023 357.0233)" class="st14 st16">384</text>
<text transform="matrix(1 0 0 1 697.9725 353.9847)" class="st14 st16">384</text>
<text transform="matrix(1 0 0 1 630.1437 357.6711)" class="st14 st16">256</text>
<text transform="matrix(1 0 0 1 557.3697 358.8286)" class="st14 st16">96</text>
<text transform="matrix(1 0 0 1 509.4575 364.2954)" class="st14 st16">3</text>
<text transform="matrix(1 0 0 1 674.7638 329.5653)" class="st14 st16">3</text>
<text transform="matrix(1 0 0 1 603.9756 322.619)" class="st14 st16">3</text>
<text transform="matrix(1 0 0 1 544.4977 336.9789)" class="st14 st16">5</text>
<text transform="matrix(1 0 0 1 506.449 341.7517)" class="st14 st16">11</text>
</svg>
